<mxfile host="app.diagrams.net" agent="Mozilla/5.0 (Windows NT 10.0; Win64; x64) AppleWebKit/537.36 (KHTML, like Gecko) Chrome/128.0.0.0 Safari/537.36" version="24.7.7">
  <diagram name="Seite-1" id="PVlxA1tqg6SF3wTXEJYV">
    <mxGraphModel dx="2586" dy="946" grid="1" gridSize="10" guides="1" tooltips="1" connect="1" arrows="1" fold="1" page="1" pageScale="1" pageWidth="827" pageHeight="1169" math="0" shadow="0">
      <root>
        <mxCell id="0" />
        <mxCell id="1" parent="0" />
        <mxCell id="OW-me-8C6EzokwnecTvY-6" style="edgeStyle=orthogonalEdgeStyle;rounded=0;orthogonalLoop=1;jettySize=auto;html=1;entryX=0.5;entryY=0;entryDx=0;entryDy=0;dashed=1;strokeColor=#00CC00;strokeWidth=2;" edge="1" parent="1" source="OW-me-8C6EzokwnecTvY-1" target="OW-me-8C6EzokwnecTvY-4">
          <mxGeometry relative="1" as="geometry" />
        </mxCell>
        <mxCell id="OW-me-8C6EzokwnecTvY-8" style="edgeStyle=orthogonalEdgeStyle;rounded=0;orthogonalLoop=1;jettySize=auto;html=1;entryX=1;entryY=0.5;entryDx=0;entryDy=0;dashed=1;strokeColor=#FF0000;strokeWidth=2;startArrow=classic;startFill=1;" edge="1" parent="1" source="OW-me-8C6EzokwnecTvY-1" target="OW-me-8C6EzokwnecTvY-5">
          <mxGeometry relative="1" as="geometry">
            <Array as="points">
              <mxPoint x="220" y="255" />
              <mxPoint x="220" y="375" />
            </Array>
          </mxGeometry>
        </mxCell>
        <mxCell id="OW-me-8C6EzokwnecTvY-1" value="layer1" style="rounded=0;whiteSpace=wrap;html=1;fillColor=#fff2cc;strokeColor=#d6b656;" vertex="1" parent="1">
          <mxGeometry x="80" y="240" width="120" height="30" as="geometry" />
        </mxCell>
        <mxCell id="OW-me-8C6EzokwnecTvY-7" style="edgeStyle=orthogonalEdgeStyle;rounded=0;orthogonalLoop=1;jettySize=auto;html=1;dashed=1;strokeColor=#00CC00;align=center;verticalAlign=middle;fontFamily=Helvetica;fontSize=11;fontColor=default;labelBackgroundColor=default;endArrow=classic;strokeWidth=2;" edge="1" parent="1" source="OW-me-8C6EzokwnecTvY-4" target="OW-me-8C6EzokwnecTvY-5">
          <mxGeometry relative="1" as="geometry" />
        </mxCell>
        <mxCell id="OW-me-8C6EzokwnecTvY-4" value="layer2" style="rounded=0;whiteSpace=wrap;html=1;fillColor=#fff2cc;strokeColor=#d6b656;" vertex="1" parent="1">
          <mxGeometry x="80" y="300" width="120" height="30" as="geometry" />
        </mxCell>
        <mxCell id="OW-me-8C6EzokwnecTvY-5" value="layer3" style="rounded=0;whiteSpace=wrap;html=1;fillColor=#fff2cc;strokeColor=#d6b656;" vertex="1" parent="1">
          <mxGeometry x="80" y="360" width="120" height="30" as="geometry" />
        </mxCell>
        <mxCell id="OW-me-8C6EzokwnecTvY-9" style="edgeStyle=orthogonalEdgeStyle;rounded=0;orthogonalLoop=1;jettySize=auto;html=1;dashed=1;strokeColor=#00CC00;strokeWidth=2;" edge="1" parent="1">
          <mxGeometry relative="1" as="geometry">
            <mxPoint x="60" y="164" as="sourcePoint" />
            <mxPoint x="120" y="164" as="targetPoint" />
          </mxGeometry>
        </mxCell>
        <mxCell id="OW-me-8C6EzokwnecTvY-10" style="edgeStyle=orthogonalEdgeStyle;rounded=0;orthogonalLoop=1;jettySize=auto;html=1;dashed=1;strokeColor=#FF0000;strokeWidth=2;" edge="1" parent="1">
          <mxGeometry relative="1" as="geometry">
            <mxPoint x="60" y="194" as="sourcePoint" />
            <mxPoint x="120" y="194" as="targetPoint" />
          </mxGeometry>
        </mxCell>
        <mxCell id="OW-me-8C6EzokwnecTvY-11" value="Allowed Usage" style="text;html=1;align=left;verticalAlign=middle;whiteSpace=wrap;rounded=0;" vertex="1" parent="1">
          <mxGeometry x="126" y="150" width="150" height="30" as="geometry" />
        </mxCell>
        <mxCell id="OW-me-8C6EzokwnecTvY-12" value="Forbidden Usage" style="text;html=1;align=left;verticalAlign=middle;whiteSpace=wrap;rounded=0;" vertex="1" parent="1">
          <mxGeometry x="126" y="180" width="150" height="30" as="geometry" />
        </mxCell>
        <mxCell id="OW-me-8C6EzokwnecTvY-13" style="rounded=0;orthogonalLoop=1;jettySize=auto;html=1;entryX=0.75;entryY=1;entryDx=0;entryDy=0;dashed=1;strokeColor=#FF0000;strokeWidth=2;exitX=0.75;exitY=0;exitDx=0;exitDy=0;" edge="1" parent="1" source="OW-me-8C6EzokwnecTvY-5" target="OW-me-8C6EzokwnecTvY-4">
          <mxGeometry relative="1" as="geometry">
            <mxPoint x="210" y="435" as="sourcePoint" />
            <mxPoint x="210" y="555" as="targetPoint" />
          </mxGeometry>
        </mxCell>
        <mxCell id="OW-me-8C6EzokwnecTvY-14" style="rounded=0;orthogonalLoop=1;jettySize=auto;html=1;entryX=0.75;entryY=1;entryDx=0;entryDy=0;dashed=1;strokeColor=#FF0000;strokeWidth=2;exitX=0.75;exitY=0;exitDx=0;exitDy=0;" edge="1" parent="1" source="OW-me-8C6EzokwnecTvY-4" target="OW-me-8C6EzokwnecTvY-1">
          <mxGeometry relative="1" as="geometry">
            <mxPoint x="180" y="320" as="sourcePoint" />
            <mxPoint x="180" y="290" as="targetPoint" />
          </mxGeometry>
        </mxCell>
      </root>
    </mxGraphModel>
  </diagram>
</mxfile>
